<svg enable-background="new 0 0 456.4 232.4" viewBox="0 0 456.4 232.4" xmlns="http://www.w3.org/2000/svg"><path d="m-.5 0h456.4v232.4h-456.4z" fill="none"/><path d="m247.1 112.8v-.6c.6-.3 1.3-.6 2.1-.8v-7.5h-10.5v7.5c.8.2 1.4.4 2.1.8v.6h-6.5v-.6c.7-.3 1.4-.6 2.1-.8v-15.5c-.4-.1-.7-.2-1.1-.3s-.7-.3-1-.4v-.6h6.5v.6c-.3.2-.7.3-1 .4s-.7.2-1.1.3v6.8h10.5v-6.8c-.4-.1-.7-.2-1.1-.3-.3-.1-.7-.3-1-.4v-.6h6.5v.6c-.3.2-.7.3-1 .4-.4.1-.7.2-1.1.3v15.5c.8.2 1.5.4 2.1.8v.6z"/><path d="m274.2 103.4c0 1.5-.3 2.9-.8 4.1s-1.2 2.2-2.1 3-1.9 1.4-3 1.9c-1.1.4-2.3.7-3.5.7-1.4 0-2.6-.2-3.7-.6s-2-1-2.7-1.8-1.3-1.7-1.7-2.9c-.4-1.1-.6-2.4-.6-3.8 0-1.5.3-2.8.8-4s1.2-2.2 2.2-3.1c.9-.8 1.9-1.5 3.1-1.9 1.1-.4 2.3-.6 3.5-.6 1.3 0 2.5.2 3.6.6s2 1 2.8 1.8 1.3 1.7 1.7 2.9c.2 1 .4 2.2.4 3.7zm-2.5.4c0-1.2-.2-2.3-.5-3.3s-.8-1.9-1.4-2.6-1.4-1.3-2.3-1.7-1.9-.6-3.1-.6c-1.8 0-3.3.7-4.4 2.1s-1.6 3.3-1.6 5.8c0 1.2.2 2.3.5 3.3s.8 1.9 1.4 2.6 1.4 1.3 2.3 1.7 1.9.6 3.1.6c1.9 0 3.3-.7 4.4-2 1.1-1.4 1.6-3.4 1.6-5.9z"/><path d="m289.7 99c-.2-.4-.4-.9-.5-1.3-.2-.5-.3-.9-.4-1.3-.5-.2-1.1-.4-1.7-.5s-1.4-.2-2.2-.2c-1.8 0-3.2.7-4.3 2.1-1 1.4-1.5 3.3-1.5 5.8s.6 4.4 1.8 5.8c1.2 1.3 3 2 5.3 2 .8 0 1.6-.1 2.4-.3s1.5-.4 2.1-.7l.3 1c-.8.5-1.6.9-2.7 1.2-1 .3-2.1.5-3.3.5-2.7 0-4.8-.8-6.2-2.3-1.5-1.5-2.2-3.8-2.2-6.7 0-1.6.3-3 .8-4.2s1.2-2.2 2-3.1c.9-.8 1.8-1.4 3-1.9 1.1-.4 2.3-.6 3.6-.6.8 0 1.6 0 2.4.1s1.5.2 2.2.4v4.2z"/><path d="m307 112.8v-.6c.6-.3 1.3-.6 2.1-.8v-7.5h-10.5v7.5c.8.2 1.4.4 2.1.8v.6h-6.5v-.6c.7-.3 1.4-.6 2.1-.8v-15.5c-.4-.1-.7-.2-1.1-.3s-.7-.3-1-.4v-.6h6.5v.6c-.3.2-.7.3-1 .4s-.7.2-1.1.3v6.8h10.4v-6.8c-.4-.1-.7-.2-1.1-.3-.3-.1-.7-.3-1-.4v-.6h6.5v.6c-.3.2-.7.3-1 .4-.4.1-.7.2-1.1.3v15.5c.8.2 1.5.4 2.1.8v.6z"/><path d="m327.4 107.6c0 .8-.2 1.5-.6 2.2s-.9 1.2-1.5 1.7-1.4.9-2.2 1.2-1.7.4-2.7.4c-.7 0-1.3 0-2-.1s-1.4-.2-2-.4v-4.6h.8c.2.5.4 1 .6 1.5s.3 1 .4 1.5c.4.2.8.3 1.3.4s1 .2 1.6.2c.5 0 1 0 1.5-.1s.9-.3 1.2-.5.6-.6.8-1 .3-.9.3-1.6-.2-1.3-.6-1.8-.9-.9-1.6-1.3c-.7-.3-1.4-.7-2.2-1s-1.5-.7-2.2-1.1-1.2-.9-1.6-1.5-.6-1.4-.6-2.2c0-.7.1-1.3.5-1.9.3-.6.7-1.2 1.3-1.6.6-.5 1.3-.9 2-1.1.8-.3 1.7-.4 2.7-.4 1.2 0 2.4.1 3.5.4v4.1h-.8c-.2-.4-.5-.9-.6-1.4-.2-.5-.3-1-.4-1.3-.3-.1-.6-.2-1-.2-.4-.1-.9-.1-1.5-.1-2.2 0-3.4 1-3.4 3 0 .7.2 1.3.6 1.7.4.5 1 .9 1.6 1.2.7.3 1.4.6 2.2.9s1.5.7 2.2 1.1 1.2.9 1.7 1.6c.5.4.7 1.2.7 2.1z"/><path d="m343.8 99c-.2-.4-.4-.9-.5-1.3-.2-.5-.3-.9-.4-1.3-.5-.2-1.1-.4-1.7-.5s-1.4-.2-2.2-.2c-1.8 0-3.2.7-4.3 2.1-1 1.4-1.5 3.3-1.5 5.8s.6 4.4 1.8 5.8c1.2 1.3 3 2 5.3 2 .8 0 1.6-.1 2.4-.3s1.5-.4 2.1-.7l.3 1c-.8.5-1.6.9-2.7 1.2-1 .3-2.1.5-3.3.5-2.7 0-4.8-.8-6.2-2.3-1.5-1.5-2.2-3.8-2.2-6.7 0-1.6.3-3 .8-4.2s1.2-2.2 2-3.1c.9-.8 1.8-1.4 3-1.9 1.1-.4 2.3-.6 3.6-.6.8 0 1.6 0 2.4.1s1.5.2 2.2.4v4.2z"/><path d="m360.5 112.8v-.6c.6-.3 1.3-.6 2.1-.8v-7.5h-10.5v7.5c.8.2 1.4.4 2.1.8v.6h-6.5v-.6c.7-.3 1.4-.6 2.1-.8v-15.5c-.4-.1-.7-.2-1.1-.3s-.7-.3-1-.4v-.6h6.5v.6c-.3.2-.7.3-1 .4s-.7.2-1.1.3v6.8h10.5v-6.8c-.4-.1-.7-.2-1.1-.3-.3-.1-.7-.3-1-.4v-.6h6.5v.6c-.3.2-.7.3-1 .4-.4.1-.7.2-1.1.3v15.5c.8.2 1.5.4 2.1.8v.6z"/><path d="m386.9 95.6c-.3.1-.6.3-.9.3l-.1 9.5c0 1.2-.2 2.2-.5 3.1s-.8 1.7-1.4 2.4c-.6.6-1.4 1.1-2.4 1.5-.9.4-2.1.5-3.3.5-1.3 0-2.4-.2-3.3-.5-.9-.4-1.6-.8-2.2-1.4s-1-1.3-1.2-2.1-.4-1.6-.4-2.5v-10.5c-.3-.1-.6-.2-.9-.3s-.6-.3-.8-.5v-.6h6.2v.6c-.3.2-.7.3-1 .4-.4.1-.7.2-1.1.3v10c0 .8.1 1.5.3 2.2s.5 1.3.9 1.8 1 .9 1.8 1.2c.7.3 1.7.4 2.8.4 1.7 0 3-.5 3.8-1.5s1.3-2.4 1.2-4.2l-.1-9.9c-.4-.1-.7-.2-1.1-.4s-.7-.3-1-.5v-.6h5.7v.6c-.4.4-.7.6-1 .7z"/><path d="m390.6 112.8v-.6c.7-.3 1.4-.6 2.2-.8v-15.5c-.4-.1-.7-.2-1.1-.3s-.7-.3-1.1-.4v-.6h6.6v.6c-.3.1-.7.3-1.1.4-.4.2-.8.3-1.1.3v15.8l6-.3c.1-.4.2-.9.4-1.5s.4-1.1.6-1.5h.8v4.3h-12.2z"/><path d="m405.1 112.8v-.6c.7-.3 1.4-.6 2.2-.8v-15.5c-.4-.1-.7-.2-1.1-.3s-.7-.3-1.1-.4v-.6h11.9v3.9h-.8c-.2-.4-.4-.9-.5-1.4-.2-.5-.3-1-.4-1.4h-5.7v7.2h4.6c.1-.3.2-.6.4-1 .2-.3.3-.6.5-.9h.7v4.8h-.7c-.2-.3-.3-.6-.5-.9s-.3-.6-.4-1h-4.6v7.8h5.8c.1-.5.2-.9.4-1.5.2-.5.3-1 .5-1.5h.8v4h-12z"/><g fill="#737366"><path d="m251.9 121.3c.3 0 .5.1.7.3s.3.4.3.7-.1.5-.3.7-.4.3-.7.3-.5-.1-.7-.3-.3-.4-.3-.7.1-.5.3-.7.4-.3.7-.3z"/><path d="m255.5 121.3c.3 0 .5.1.7.3s.3.4.3.7-.1.5-.3.7-.4.3-.7.3-.5-.1-.7-.3-.3-.4-.3-.7.1-.5.3-.7.4-.3.7-.3z"/><path d="m244 127.2c-.1-.3-.3-.7-.4-1s-.2-.7-.3-1h-4v5.3h3.2c.1-.2.2-.5.3-.7s.2-.4.3-.6h.5v3.5h-.5c-.1-.2-.2-.4-.4-.7-.1-.2-.2-.5-.3-.7h-3.2v5.3c.3.1.5.1.8.2s.6.2.8.3v.5h-4.9v-.5c.5-.2 1-.4 1.6-.5v-11.1c-.3-.1-.5-.1-.8-.2s-.5-.2-.8-.3v-.4h8.5v2.8h-.4z"/><path d="m259.5 125.2c-.2.1-.5.2-.7.2v6.9c0 .8-.1 1.6-.3 2.3s-.6 1.2-1 1.7c-.5.5-1 .8-1.7 1.1s-1.5.4-2.4.4-1.7-.1-2.4-.4-1.2-.6-1.6-1-.7-.9-.9-1.5-.3-1.2-.3-1.8v-7.6c-.2-.1-.4-.1-.7-.2-.2-.1-.4-.2-.6-.3v-.4h4.5v.4c-.2.1-.5.2-.7.3-.3.1-.5.2-.8.2v7.2c0 .5.1 1.1.2 1.6s.3.9.7 1.3c.3.4.7.7 1.3.9.5.2 1.2.3 2 .3 1.2 0 2.2-.3 2.8-1s.9-1.7.9-3.1l-.1-7.1c-.3-.1-.5-.2-.8-.3s-.5-.2-.7-.3v-.4h4.2v.4c-.5 0-.7.1-.9.2z"/><path d="m272 137.6c-.3 0-.6.1-.8.1-.3 0-.6-.2-.9-.5s-.5-.7-.7-1.2-.4-1-.6-1.6-.4-1.1-.7-1.6c-.2-.5-.5-.9-.9-1.2-.3-.3-.7-.5-1.1-.5h-1v5.4c.3.1.5.1.8.2s.5.2.7.3v.5h-4.7v-.5c.5-.2 1-.4 1.6-.5v-11.1c-.3-.1-.5-.1-.8-.2s-.5-.2-.8-.3v-.4h1.4 1.3 2.4c1.4 0 2.5.3 3.2.8s1.1 1.3 1.1 2.4c0 .9-.3 1.6-.9 2.2-.6.5-1.4.9-2.4 1.1.4.1.8.3 1 .6.3.3.5.7.7 1.2s.4 1 .6 1.5.4 1 .6 1.4.4.8.7 1 .6.3 1 .2l.1.6c-.3 0-.6.1-.9.1zm-2.2-9.8c0-1.8-1.1-2.7-3.2-2.7-.2 0-.4 0-.6 0s-.4.1-.5.1v5.2h1.3c.6 0 1-.1 1.4-.2s.7-.3 1-.5.4-.5.6-.8c-.1-.4 0-.8 0-1.1z"/><path d="m285.2 137.5v-.5c.5-.2 1-.4 1.6-.5l-1-2.5h-5.5l-.9 2.5c.5.1 1 .3 1.4.5v.5h-4v-.5c.4-.2.8-.4 1.2-.5l5-12.3h1l4.7 12.3c.2.1.4.2.7.3.2.1.4.2.5.3v.5h-4.7zm-2.2-11.1-2.4 6.8h5z"/><path d="m304.3 124.8c-.2.1-.4.3-.6.4s-.4.2-.7.3v12.1h-1l-8.3-11.7.4 10.4c.3.1.5.2.8.3s.5.2.7.4v.5h-4.3v-.5c.2-.1.5-.3.7-.4.3-.1.5-.2.8-.3l.1-11c-.3-.1-.6-.1-.8-.2-.3-.1-.5-.2-.8-.3v-.4h3.4l7.5 10.5-.3-9.4c-.2-.1-.5-.2-.8-.3s-.5-.3-.7-.4v-.5h4v.5z"/><path d="m318.1 132.1v4.3c-.7.4-1.5.8-2.3 1-.9.2-1.7.3-2.6.3s-1.8-.1-2.6-.4-1.5-.7-2.1-1.3c-.6-.5-1-1.2-1.4-2-.3-.8-.5-1.7-.5-2.8s.2-2 .6-2.9.9-1.6 1.5-2.2c.7-.6 1.4-1.1 2.3-1.4s1.8-.5 2.9-.5c.7 0 1.4 0 2 .1.7.1 1.3.2 1.9.4v3h-.6c-.1-.3-.3-.6-.4-.9s-.2-.6-.3-.9c-.4-.2-1-.4-1.6-.5s-1.2-.2-1.9-.2c-1.5 0-2.7.5-3.5 1.5s-1.3 2.4-1.3 4.2c0 .9.1 1.8.4 2.5s.7 1.3 1.1 1.8c.5.5 1.1.9 1.8 1.1.7.3 1.5.4 2.4.4.4 0 .8 0 1.2-.1s.8-.2 1.2-.3v-4.1c-.3-.1-.6-.2-.8-.3-.3-.1-.5-.2-.8-.4v-.5h4.6v.5c-.3.2-.7.4-1.2.6z"/><path d="m321.4 137.5v-.5c.5-.2 1-.4 1.6-.5v-11.1c-.3-.1-.5-.1-.8-.2s-.5-.2-.8-.3v-.4h8.6v2.8h-.6c-.1-.3-.3-.6-.4-1s-.2-.7-.3-1h-4.1v5.2h3.3c.1-.2.2-.4.3-.7.1-.2.2-.5.3-.7h.5v3.5h-.5c-.1-.2-.2-.4-.3-.6s-.2-.5-.3-.7h-3.3v5.6h4.2c.1-.3.2-.7.3-1 .1-.4.3-.7.4-1h.6v2.9h-8.7z"/><path d="m349.7 125.2c-.2.1-.4.2-.6.2l-3.5 12.3h-1.1l-3.5-10.5-3 10.5h-1l-3.6-12.3c-.2-.1-.4-.1-.6-.3-.2-.1-.4-.2-.6-.3v-.4h4.5v.4c-.2.1-.5.3-.8.4s-.5.2-.8.3l2.7 9.5 3-10.7h.9l3.5 10.7 2.2-9.6c-.5-.1-1-.3-1.5-.6v-.4h4.1v.4c.1.1-.1.3-.3.4z"/><path d="m358.6 137.5v-.5c.5-.2 1-.4 1.6-.5l-1-2.5h-5.5l-.9 2.5c.5.1 1 .3 1.4.5v.5h-4v-.5c.4-.2.8-.4 1.2-.5l5-12.3h1l4.7 12.3c.2.1.4.2.7.3.2.1.4.2.5.3v.5h-4.7zm-2.2-11.1-2.4 6.8h5z"/><path d="m377.6 124.8c-.2.1-.4.3-.6.4s-.4.2-.7.3v12.1h-1l-8.3-11.6.4 10.4c.3.1.5.2.8.3s.5.2.7.4v.5h-4.3v-.6c.2-.1.5-.3.7-.4.3-.1.5-.2.8-.3l.1-11c-.3-.1-.6-.1-.8-.2-.3-.1-.5-.2-.8-.3v-.4h3.4l7.5 10.5-.3-9.4c-.2-.1-.5-.2-.8-.3s-.5-.3-.7-.4v-.5h4v.5z"/><path d="m393 130.8c0 1.1-.2 2.1-.6 3s-1 1.6-1.7 2.1c-.7.6-1.6 1-2.6 1.3s-2 .4-3.2.4c-.7 0-1.3 0-1.9 0s-1.1 0-1.5 0h-1.6v-.5c.5-.2 1-.4 1.6-.5v-11.1c-.3-.1-.5-.1-.8-.2s-.5-.2-.8-.3v-.4h1.6.9 1.3 1.2 1c2.4 0 4.2.5 5.4 1.6 1.1.8 1.7 2.4 1.7 4.6zm-1.7.3c0-.9-.1-1.8-.4-2.5-.2-.7-.6-1.4-1.1-1.9s-1.1-.9-1.9-1.2-1.7-.4-2.7-.4c-.4 0-.8 0-1.1 0s-.6 0-.9.1v11.2c.3.1.7.2 1.2.2.5.1 1.1.1 1.8.1s1.3-.1 1.9-.4c.6-.2 1.2-.6 1.6-1 .5-.5.8-1 1.1-1.8.3-.6.5-1.5.5-2.4z"/><path d="m405.3 127.4h-.6c-.2-.3-.3-.7-.5-1.1-.1-.4-.2-.8-.3-1.1h-3.2v11.4c.6.1 1.1.3 1.6.5v.5h-4.8v-.5c.5-.2 1-.4 1.6-.5v-11.4h-3.1c-.1.4-.2.7-.3 1.1s-.3.8-.5 1.1h-.6v-3h10.6v3z"/><path d="m406.9 137.5v-.5c.5-.2 1-.4 1.6-.5v-11.1c-.3-.1-.5-.1-.8-.2s-.5-.2-.8-.3v-.4h8.6v2.8h-.6c-.1-.3-.3-.6-.4-1s-.2-.7-.3-1h-4.1v5.2h3.3c.1-.2.2-.4.3-.7.1-.2.2-.5.3-.7h.5v3.5h-.5c-.1-.2-.2-.4-.3-.6s-.2-.5-.3-.7h-3.3v5.6h4.2c.1-.3.2-.7.3-1 .1-.4.3-.7.4-1h.6v2.9h-8.7z"/><path d="m258 146.6c-.2.1-.4.2-.6.2l-3.5 12.3h-1.1l-3.5-10.5-3 10.5h-1.1l-3.6-12.3c-.2-.1-.4-.1-.6-.3-.2-.1-.4-.2-.6-.3v-.4h4.5v.4c-.2.1-.5.3-.8.4s-.5.2-.8.2l2.7 9.5 3-10.7h.9l3.5 10.7 2.2-9.6c-.5-.1-1-.3-1.5-.6v-.4h4.1v.4c.2.2 0 .4-.2.5z"/><path d="m260.2 158.9v-.5c.5-.2 1-.4 1.6-.5v-11.1c-.3-.1-.5-.1-.8-.2s-.5-.2-.8-.3v-.4h4.8v.4c-.2.1-.5.2-.8.3s-.5.2-.8.3v11.1c.5.1 1.1.3 1.6.5v.5h-4.8z"/><path d="m275.8 155.2c0 .6-.1 1.1-.4 1.6s-.6.9-1.1 1.2c-.5.4-1 .6-1.6.8s-1.3.3-1.9.3c-.5 0-1 0-1.5-.1s-1-.2-1.4-.3v-3.3h.6c.2.4.3.7.4 1.1s.2.7.3 1c.3.1.6.2 1 .3s.8.1 1.2.1.7 0 1.1-.1c.3-.1.6-.2.9-.4s.5-.4.6-.7.2-.7.2-1.1c0-.5-.1-1-.4-1.3-.3-.4-.7-.7-1.2-.9s-1-.5-1.6-.7-1.1-.5-1.6-.8-.9-.7-1.2-1.1-.5-1-.5-1.6c0-.5.1-.9.3-1.4.2-.4.5-.8 1-1.2.4-.3.9-.6 1.5-.8s1.2-.3 1.9-.3c.9 0 1.7.1 2.5.3v3h-.6c-.2-.3-.3-.7-.5-1.1-.1-.4-.2-.7-.3-1-.2-.1-.4-.1-.8-.2-.3 0-.7-.1-1.1-.1-1.6 0-2.4.7-2.4 2.2 0 .5.2.9.5 1.3.3.3.7.6 1.2.9.5.2 1 .5 1.6.7s1.1.5 1.6.8.9.7 1.2 1.1c.4.6.5 1.1.5 1.8z"/><path d="m286.9 155.2c0 .6-.1 1.1-.4 1.6s-.6.9-1.1 1.2c-.5.4-1 .6-1.6.8s-1.3.3-1.9.3c-.5 0-1 0-1.5-.1s-1-.2-1.4-.3v-3.3h.6c.1.4.3.7.4 1.1s.2.7.3 1c.3.1.6.2 1 .3s.8.1 1.2.1.7 0 1.1-.1c.3-.1.6-.2.9-.4s.5-.4.6-.7c.2-.3.2-.7.2-1.1 0-.5-.1-1-.4-1.3-.3-.4-.7-.7-1.2-.9s-1-.5-1.6-.7-1.1-.5-1.6-.8-.9-.7-1.2-1.1-.4-1-.4-1.6c0-.5.1-.9.3-1.4.2-.4.5-.8 1-1.2.4-.3.9-.6 1.5-.8s1.2-.3 2-.3c.9 0 1.7.1 2.5.3v3h-.6c-.2-.3-.3-.7-.5-1.1-.1-.4-.2-.7-.3-1-.2-.1-.4-.1-.8-.2-.3 0-.7-.1-1.1-.1-1.6 0-2.4.7-2.4 2.2 0 .5.2.9.5 1.3.3.3.7.6 1.2.9.5.2 1 .5 1.6.7s1.1.5 1.6.8.9.7 1.2 1.1c.2.6.3 1.1.3 1.8z"/><path d="m289.6 158.9v-.5c.5-.2 1-.4 1.6-.5v-11.1c-.3-.1-.5-.1-.8-.2s-.5-.2-.8-.3v-.4h8.6v2.8h-.6c-.1-.3-.3-.6-.4-1s-.2-.7-.3-1h-4.1v5.2h3.3c.1-.2.2-.4.3-.7.1-.2.2-.5.3-.7h.5v3.5h-.5c-.1-.2-.2-.4-.3-.6s-.2-.5-.3-.7h-3.3v5.6h4.2c.1-.3.2-.7.3-1 .1-.4.3-.7.4-1h.6v2.9h-8.7z"/><path d="m314 146.2c-.2.1-.4.3-.6.4s-.4.2-.7.3v12.1h-1l-8.3-11.7.4 10.4c.3.1.5.2.8.3s.5.2.7.4v.5h-4.3v-.5c.2-.1.5-.3.7-.4.3-.1.5-.2.8-.3l.1-11c-.3-.1-.6-.1-.8-.2-.3-.1-.5-.2-.8-.3v-.4h3.4l7.5 10.5-.3-9.4c-.2-.1-.5-.2-.8-.3s-.5-.3-.7-.4v-.5h4v.5z"/><path d="m324.8 155.2c0 .6-.1 1.1-.4 1.6s-.6.9-1.1 1.2c-.5.4-1 .6-1.6.8s-1.3.3-1.9.3c-.5 0-1 0-1.5-.1s-1-.2-1.4-.3v-3.3h.6c.2.4.3.7.4 1.1s.2.7.3 1c.3.1.6.2 1 .3s.8.1 1.2.1.7 0 1.1-.1c.3-.1.6-.2.9-.4s.5-.4.6-.7c.2-.3.2-.7.2-1.1 0-.5-.1-1-.4-1.3-.3-.4-.7-.7-1.2-.9s-1-.5-1.6-.7-1.1-.5-1.6-.8-.9-.7-1.2-1.1-.4-1-.4-1.6c0-.5.1-.9.3-1.4.2-.4.5-.8 1-1.2.4-.3.9-.6 1.5-.8s1.2-.3 2-.3c.9 0 1.7.1 2.5.3v3h-.6c-.2-.3-.3-.7-.5-1.1-.1-.4-.2-.7-.3-1-.2-.1-.4-.1-.8-.2-.3 0-.7-.1-1.1-.1-1.6 0-2.4.7-2.4 2.2 0 .5.2.9.5 1.3.3.3.7.6 1.2.9.5.2 1 .5 1.6.7s1.1.5 1.6.8.9.7 1.2 1.1c.1.6.3 1.1.3 1.8z"/><path d="m336.7 149c-.1-.3-.3-.6-.4-1-.1-.3-.2-.6-.3-.9-.4-.2-.8-.3-1.3-.4s-1-.1-1.6-.1c-1.3 0-2.4.5-3.1 1.5s-1.1 2.4-1.1 4.2.4 3.2 1.3 4.1c.9 1 2.2 1.4 3.9 1.4.6 0 1.2-.1 1.8-.2s1.1-.3 1.5-.5l.2.7c-.5.4-1.2.6-1.9.9-.7.2-1.5.3-2.4.3-2 0-3.5-.6-4.5-1.7-1.1-1.1-1.6-2.7-1.6-4.8 0-1.1.2-2.1.6-3s.9-1.6 1.5-2.2 1.3-1 2.2-1.3c.8-.3 1.7-.5 2.6-.5.6 0 1.2 0 1.7.1.6.1 1.1.2 1.6.3v3h-.7z"/><path d="m349.2 158.9v-.5c.5-.2 1-.4 1.5-.5v-5.4h-7.6v5.4c.5.1 1.1.3 1.5.5v.5h-4.7v-.5c.5-.2 1-.4 1.6-.5v-11.1c-.3-.1-.5-.1-.8-.2s-.5-.2-.8-.3v-.4h4.7v.4c-.2.1-.5.2-.7.3-.3.1-.5.2-.8.2v4.9h7.6v-4.9c-.3-.1-.5-.1-.8-.2s-.5-.2-.7-.3v-.4h4.7v.4c-.2.1-.5.2-.8.3s-.5.2-.8.2v11.1c.5.1 1.1.3 1.6.5v.5z"/><path d="m363.9 158.9v-.5c.5-.2 1-.4 1.6-.5l-1-2.5h-5.5l-.9 2.5c.5.1 1 .3 1.4.5v.5h-4v-.5c.4-.2.8-.4 1.2-.5l5-12.3h1l4.7 12.3c.2.1.4.2.7.3.2.1.4.2.5.3v.5h-4.7zm-2.3-11.1-2.4 6.8h5z"/><path d="m377.8 148.6c-.2-.3-.3-.7-.4-1s-.2-.7-.3-1h-4v5.3h3.2c.1-.2.2-.5.3-.7s.2-.4.3-.6h.5v3.5h-.5c-.1-.2-.2-.4-.4-.7-.1-.2-.2-.5-.3-.7h-3.2v5.3c.3.1.5.1.8.2s.6.2.8.3v.5h-4.9v-.5c.5-.2 1-.4 1.6-.5v-11.1c-.3-.1-.5-.1-.8-.2s-.5-.2-.8-.3v-.4h8.5v2.8h-.4z"/><path d="m390.7 148.8h-.6c-.2-.3-.3-.7-.5-1.1-.1-.4-.2-.8-.3-1.1h-3.2v11.4c.6.1 1.1.3 1.6.5v.5h-4.7v-.5c.5-.2 1-.4 1.6-.5v-11.4h-3.2c-.1.4-.2.7-.3 1.1s-.3.8-.5 1.1h-.6v-3h10.6v3z"/><path d="m392.4 158.9v-.5c.5-.2 1-.4 1.6-.5v-11.1c-.3-.1-.5-.1-.8-.2s-.5-.2-.8-.3v-.4h8.6v2.8h-.6c-.1-.3-.3-.6-.4-1s-.2-.7-.3-1h-4.1v5.2h3.3c.1-.2.2-.4.3-.7.1-.2.2-.5.4-.7h.5v3.5h-.5c-.1-.2-.2-.4-.4-.6-.1-.2-.2-.5-.3-.7h-3.3v5.6h4.2c.1-.3.2-.7.3-1 .1-.4.3-.7.4-1h.6v2.9h-8.7z"/><path d="m416.8 146.2c-.2.1-.4.3-.6.4s-.4.2-.7.3v12.1h-1l-8.3-11.7.4 10.4c.3.1.5.2.8.3s.5.2.7.4v.5h-4.3v-.5c.2-.1.5-.3.7-.4.3-.1.5-.2.8-.3l.1-11c-.3-.1-.6-.1-.8-.2-.3-.1-.5-.2-.8-.3v-.4h3.4l7.5 10.5-.3-9.4c-.2-.1-.5-.2-.8-.3s-.5-.3-.7-.4v-.5h4v.5z"/></g><path d="m253.9 192.4-2.9-24.1c1.1-.3 2.3-.9 3.2-1.4v-1h-7l-9 23.3-9.2-23.3-54.4-128-135.5 57.5 42.2 99.3h82.1l62-26.3-3 24.1c-.7.3-1.6.7-2.3 1.2v1h8.3v-1c-.9-.5-1.8-.9-3.1-1.2l1.6-22.4 9.6 24.6h1.7l9.5-24.9 2.5 22.6c-1.2.3-2.3.8-3.2 1.4v1h9.3v-1c-.6-.6-1.5-1.1-2.4-1.4z" fill="#c00"/><path d="m282 173.8-.1 11.6c0 6.3-3.8 9.7-10.1 9.7-6.8 0-9.6-3.6-9.6-8.9v-12.4c-.9-.3-1.7-.7-2.4-1.2v-1h8.8v1c-.9.5-1.9.9-3 1.2v11.2c0 5 1.8 7.9 7.4 7.9 4.3 0 6.8-2.3 6.7-6.9l-.2-12.2c-1.1-.2-2.2-.7-3-1.2v-1h8v1c-.7.5-1.6 1-2.5 1.2zm-13.6-5.3c-1.1 0-2-.9-2-2s.9-2 2-2 2 .9 2 2-1 2-2 2zm7.9 0c-1.1 0-2-.9-2-2s.9-2 2-2 2 .9 2 2-.9 2-2 2z" fill="#c00"/><path d="m310.5 173.9v21.1h-2l-14.9-19.6.7 17.1c1 .3 2.1.7 3.2 1.2v1h-8.8v-1c1.1-.6 2-.9 2.9-1.2l.2-18.7c-1.1-.3-2.1-.7-3.1-1.2v-1h6.5l13.5 17.8-.6-15.6c-1-.3-2-.7-3-1.2v-1h7.8v1c-.7.5-1.5 1-2.4 1.3z" fill="#c00"/><path d="m329.2 195c-7.8 0-11.9-3.9-11.9-11.1 0-8.3 5-12.6 12.6-12.6 2.6 0 4.7.3 6.6.8v6.2h-1.2c-.6-1.4-1-2.7-1.3-4-1.2-.6-3-1.1-4.8-1.1-5.2 0-8.1 3.6-8.1 10 0 6 3.2 9.2 9.5 9.2 1.9 0 4.3-.4 6.1-1.3l.6 1.5c-2.2 1.4-4.9 2.4-8.1 2.4z" fill="#c00"/><path d="m358.6 194.7v-1c.9-.6 1.9-.9 3-1.2v-8.9h-13.4v8.9c1.1.3 2.1.6 2.9 1.2v1h-9.6v-1c1.1-.6 2.1-.9 3.2-1.2v-18.7c-1.1-.3-2.2-.7-3.2-1.2v-1h9.6v1c-.8.5-1.9.9-2.9 1.2v8h13.4v-8c-1-.3-2.2-.7-3-1.2v-1h9.6v1c-1 .5-2.1.9-3.2 1.2v18.7c1.1.3 2.1.6 3.2 1.2v1z" fill="#c00"/><path d="m372.8 194.7v-1c1-.5 2.1-.9 3.2-1.2v-18.7c-1.1-.3-2.3-.7-3.2-1.2v-1h16.9v5h-1.2c-.6-1-1.1-2.3-1.3-3.4h-7.7v8.7h6.2c.3-.8.8-1.7 1.2-2.3h1.1v6.2h-1.1c-.4-.6-.9-1.5-1.2-2.3h-6.2v9.4h7.8c.2-1.1.8-2.4 1.3-3.5h1.2v5.2h-17z" fill="#c00"/><path d="m416.8 173.9v21.1h-2l-14.9-19.6.7 17.1c1 .3 2.1.7 3.2 1.2v1h-8.8v-1c1.1-.6 2-.9 2.9-1.2l.2-18.7c-1.1-.3-2.1-.7-3.1-1.2v-1h6.5l13.5 17.8-.6-15.6c-1-.3-2-.7-3-1.2v-1h7.8v1c-.7.5-1.5 1-2.4 1.3z" fill="#c00"/></svg>