<svg enable-background="new 0 0 233.858261 63.779526" viewBox="0 0 233.858 63.78" xmlns="http://www.w3.org/2000/svg"><g fill="#fc5555"><path d="m108.525444 12.856152h16.807381v16.807381h-16.807381z" transform="matrix(.948683 -.316228 .316228 .948683 -.722535 38.067223)"/><path d="m40.94191 29.388807h-25.19104v-18.758886h-5.120972v42.519684h5.120972v-19.472866h25.19104v19.472866h5.120971v-42.519684h-5.120971z"/><path d="m74.616943 46.479675h-.117012l-13.43021-35.849754h-7.920116v42.519684h4.883079v-37.278697h.119019l14.144218 37.278697h4.167061l14.145249-37.278697h.119026v37.278697h4.942032v-42.519684h-7.622132z"/><path d="m158.985306 45.353088h.878052v7.786011h-.878052z"/><path d="m161.851334 47.818054h.877991v5.321045h-.877991z"/><path d="m161.788345 45.639099h.994019v1.067993h-.994019z"/><path d="m155.018326 47.691101c-.919983 0-1.554993.560974-1.797974 1.099976v-.973022h-.846008v7.204041h.877991v-2.814026c.263977.540039.888 1.058044 1.765991 1.058044 1.354004 0 2.369995-1.100037 2.369995-2.782043 0-1.692994-1.015991-2.79297-2.369995-2.79297zm-.179016 4.886963c-1.036987 0-1.628967-.824951-1.628967-2.031006v-.147949c0-1.206055.59198-2.02002 1.628967-2.02002 1.046997 0 1.660034.856995 1.660034 2.10498 0 1.238038-.613037 2.093995-1.660034 2.093995z"/><path d="m140.442337 45.58606-3.057007 7.55304h.910034l.835999-2.105042h3.616943l.83606 2.105042h.951965l-3.067993-7.55304zm-1.015015 4.697021 1.502014-3.786987h.031982l1.491028 3.786987z"/><path d="m166.833328 47.691101c-1.416992 0-2.507019 1.078979-2.507019 2.813965 0 1.713989 1.058044 2.761047 2.559998 2.761047 1.037048 0 1.957031-.561035 2.200012-1.693054h-.825012c-.221985.645996-.655945.995056-1.375.995056-1.014954 0-1.66095-.677002-1.702942-1.904053h3.934998v-.348999c-.000001-1.36499-.709046-2.623962-2.285035-2.623962zm-1.617981 2.338013c.14801-1.090027.782959-1.629028 1.617981-1.629028.952026 0 1.406982.708984 1.427979 1.629028z"/><path d="m148.407364 47.691101c-.920044 0-1.555054.560974-1.798035 1.099976v-.973022h-.846008v7.204041h.877991v-2.814026c.264038.540039.888 1.058044 1.766052 1.058044 1.353943 0 2.369995-1.100037 2.369995-2.782043 0-1.692994-1.016052-2.79297-2.369995-2.79297zm-.179016 4.886963c-1.036987 0-1.629028-.824951-1.629028-2.031006v-.147949c0-1.206055.592041-2.02002 1.629028-2.02002 1.046997 0 1.659973.856995 1.659973 2.10498 0 1.238038-.612976 2.093995-1.659973 2.093995z"/><path d="m209.552322 48.400085c.718994 0 1.153015.390991 1.301025 1.099976h.834961c-.168945-1.131958-.951965-1.80896-2.135986-1.80896-1.480957 0-2.506958 1.089966-2.506958 2.792969s1.026001 2.782043 2.506958 2.782043c1.184021 0 1.967041-.666016 2.135986-1.809021h-.834961c-.14801.708984-.582031 1.099976-1.301025 1.099976-1.047974 0-1.639954-.825012-1.639954-2.072998s.591981-2.083985 1.639954-2.083985z"/><path d="m174.470352 48.760071c-.243042-.539978-.846008-1.06897-1.765991-1.06897-1.354004 0-2.369995 1.099976-2.369995 2.792969 0 1.682007 1.015991 2.782043 2.369995 2.782043.877991 0 1.533997-.518005 1.797974-1.058044v.93103h.846008v-7.786011h-.877991zm.042969 1.786987c0 1.206055-.592957 2.031006-1.628967 2.031006-1.048035 0-1.661011-.855957-1.661011-2.093994 0-1.247986.612976-2.10498 1.661011-2.10498 1.036011 0 1.628967.813965 1.628967 2.02002z"/><path d="m197.134354 47.691101c-1.41803 0-2.507019 1.078979-2.507019 2.813965 0 1.713989 1.057007 2.761047 2.559021 2.761047 1.036987 0 1.95697-.561035 2.200989-1.693054h-.825012c-.223022.645996-.656006.995056-1.375977.995056-1.015015 0-1.660034-.677002-1.703003-1.904053h3.934998v-.348999c-.000001-1.36499-.708009-2.623962-2.283997-2.623962zm-1.619019 2.338013c.14801-1.090027.78302-1.629028 1.619019-1.629028.951965 0 1.406006.708984 1.427979 1.629028z"/><path d="m221.853348 50.198059-1.057983-.200989c-.613037-.115967-.930054-.307007-.930054-.760986 0-.518982.454041-.867981 1.163025-.867981.72998 0 1.205994.317993 1.268982.856995h.815002c-.105957-1.005005-.856995-1.533997-2.083984-1.533997-1.174011 0-1.977966.697998-1.977966 1.597961 0 .929993.623962 1.278992 1.480957 1.438049l.94104.190979c.677002.127014.930969.380005.930969.771973 0 .571045-.528992.910034-1.258972.910034-.718994 0-1.395996-.307007-1.459045-1.036987h-.846985c.096008 1.141968 1.048035 1.703003 2.317017 1.703003 1.195007 0 2.072998-.688049 2.072998-1.619019-.000001-.856017-.50702-1.280029-1.375001-1.449035z"/><path d="m215.359329 47.691101c-1.417969 0-2.507019 1.078979-2.507019 2.813965 0 1.713989 1.057007 2.761047 2.559021 2.761047 1.036987 0 1.957031-.561035 2.200989-1.693054h-.824951c-.223022.645996-.656006.995056-1.376038.995056-1.015015 0-1.659973-.677002-1.703003-1.904053h3.934998v-.348999c0-1.36499-.708008-2.623962-2.283997-2.623962zm-1.619018 2.338013c.14801-1.090027.78302-1.629028 1.619019-1.629028.952026 0 1.406006.708984 1.42804 1.629028z"/><path d="m203.596329 47.691101c-.813965 0-1.47998.44397-1.734009 1.099976v-.973022h-.846985v5.321045h.877991v-2.929993c0-1.280029.645996-1.798035 1.460022-1.798035.835999 0 1.27002.507019 1.27002 1.491028v3.237h.876953v-3.427002c-.000001-1.27002-.708008-2.020997-1.903992-2.020997z"/><path d="m192.152359 47.818054h.877991v5.321045h-.877991z"/><path d="m188.460342 48.400085c.718994 0 1.153015.390991 1.300964 1.099976h.83606c-.169006-1.131958-.952026-1.80896-2.137024-1.80896-1.481018 0-2.507019 1.089966-2.507019 2.792969s1.026001 2.782043 2.507019 2.782043c1.184998 0 1.968018-.666016 2.137024-1.809021h-.83606c-.147949.708984-.58197 1.099976-1.300964 1.099976-1.046997 0-1.638977-.825012-1.638977-2.072998s.59198-2.083985 1.638977-2.083985z"/><path d="m182.791336 49.098083-1.481018-.307007c-.920959-.179016-1.343994-.44397-1.343994-1.195007 0-.792969.656006-1.406982 1.756042-1.406982 1.078979 0 1.819946.487 1.945984 1.333008h.877991c-.14801-1.36499-1.216003-2.062988-2.833984-2.062988-1.56604 0-2.634033.930969-2.634033 2.169006 0 1.300964.908997 1.765991 1.924988 1.95697l1.438049.284973c1.026978.19104 1.375977.603027 1.375977 1.238037 0 .909973-.794006 1.427979-1.872986 1.427979-1.121033 0-2.11499-.412964-2.231995-1.628967h-.877991c.105957 1.649963 1.480957 2.359009 3.120972 2.359009 1.596985 0 2.73999-.910034 2.73999-2.200012 0-1.196046-.740967-1.735047-1.903992-1.968019z"/><path d="m192.088333 45.639099h.994019v1.067993h-.994019z"/><path d="m152.469254 34.066467h.993958v1.067993h-.993958z"/><path d="m141.130203 41.692505c1.946045 0 3.057007-1.142029 3.057007-3.205017v-4.474976h-.909973v4.527954c0 1.608032-.814026 2.380005-2.147034 2.380005-1.32196 0-2.146973-.771973-2.146973-2.380005v-4.527954h-.910034v4.453979c0 2.083985 1.132019 3.226014 3.057007 3.226014z"/><path d="m172.99025 36.794495c.729004 0 1.204956.317993 1.268982.856995h.813965c-.10498-1.005005-.855957-1.533997-2.082947-1.533997-1.175049 0-1.978027.698975-1.978027 1.598022 0 .930969.624023 1.279968 1.47998 1.437988l.942017.190979c.677002.127014.93103.380981.93103.772034 0 .570984-.529053.909973-1.259033.909973-.718994 0-1.395996-.307007-1.459961-1.036987h-.846008c.094971 1.143005 1.046997 1.703003 2.316956 1.703003 1.195007 0 2.072998-.687012 2.072998-1.618042 0-.856995-.507996-1.279968-1.375-1.448975l-1.057983-.200989c-.614014-.117004-.930969-.307007-.930969-.762024-.000002-.518005.454954-.86798 1.164-.86798z"/><path d="m150.597244 41.565491v-3.427002c0-1.268982-.709045-2.020996-1.903992-2.020996-.814026 0-1.481018.445007-1.735046 1.101013v-.973999h-.846008v5.320984h.878052v-2.929993c0-1.280029.644958-1.798035 1.459961-1.798035.835022 0 1.269043.507996 1.269043 1.491028v3.237z"/><path d="m152.533218 36.244507h.877991v5.320984h-.877991z"/><path d="m176.819229 36.244507h.877991v5.320984h-.877991z"/><path d="m176.755203 34.066467h.994019v1.067993h-.994019z"/><path d="m167.923233 37.503479v-1.258972h-.846008v5.320984h.877991v-2.622986c0-1.343994.772034-2.01001 1.617981-2.01001.138 0 .328003.010986.455017.041992v-.804016c-.127014-.031006-.274963-.041992-.412964-.041992-.782044 0-1.459046.497009-1.692017 1.375z"/><path d="m188.189224 36.244507h-.908997l-1.596985 4.347961h-.022034l-1.691956-4.347961h-.920044l2.136047 5.363953c-.34906.899048-.592041 1.195007-1.121033 1.195007-.137024 0-.253967 0-.422974-.041992v.718994c.169006.032043.369995.05304.518005.05304.972961-.011047 1.396973-.540039 1.882996-1.809021z"/><path d="m181.229202 41.650513c.233032 0 .540039-.032043.93103-.14801v-.720032c-.338013.106018-.570984.127014-.772034.127014-.485962 0-.771973-.190002-.771973-.750977v-3.247009h1.406982v-.666992h-1.395996v-1.354004h-.867981v1.354004h-.78302v.666992h.78302v3.289978c.000002.983032.497011 1.449036 1.469972 1.449036z"/><path d="m197.874222 35.250488v.994019h-.771973v.666992h.771973v4.653992h.867981v-4.653992h1.142029v-.666992h-1.142029v-.983032c0-.602966.348999-.794006.729004-.794006.19104 0 .402039.011047.540039.032043v-.697998c-.158997-.032043-.402039-.05304-.592041-.05304-.909973 0-1.544983.507996-1.544983 1.502014z"/><path d="m196.140213 38.910461c0-1.713989-1.057983-2.792969-2.528992-2.792969-1.469971 0-2.528015 1.078979-2.528015 2.792969 0 1.71405 1.058044 2.782043 2.528015 2.782043 1.471009.000001 2.528992-1.067992 2.528992-2.782043zm-2.528992 2.072998c-1.036011 0-1.659973-.792969-1.659973-2.072998 0-1.279968.623962-2.083984 1.659973-2.083984 1.036987 0 1.661011.804016 1.661011 2.083984 0 1.28003-.624023 2.072998-1.661011 2.072998z"/><path d="m165.448196 40.000488h-.824951c-.222046.64502-.656006.994019-1.375.994019-1.015991 0-1.661011-.677002-1.703003-1.903992h3.934998v-.348999c0-1.365051-.708984-2.624023-2.285034-2.624023-1.417969 0-2.506958 1.078979-2.506958 2.813965 0 1.71405 1.057983 2.761047 2.559998 2.761047 1.03601 0 1.956969-.559998 2.19995-1.692017zm-2.25299-3.174011c.952026 0 1.407043.708984 1.42804 1.629028h-3.046997c.147948-1.088989.782958-1.629028 1.618957-1.629028z"/><path d="m157.388199 40.698486h-.020996l-1.713989-4.453979h-.898987l2.125976 5.320984h.984009l2.041016-5.320984h-.877991z"/><path d="m150.364761 22.492371h.898987v1.067993h-.898987z"/><path d="m148.439713 22.492371h.889038v1.067993h-.889038z"/><path d="m170.73671 29.992371v-3.427002c0-1.269958-.707947-2.020996-1.903992-2.020996-.813965 0-1.448975.423035-1.703003 1.100037v-3.43805h-.877991v7.786011h.877991v-2.929993c0-1.279968.645996-1.797974 1.460022-1.797974.835999 0 1.268982.506958 1.268982 1.490967v3.237z"/><path d="m154.870743 25.644409v-.973022h-.846008v5.320984h.877991v-2.929993c0-1.279968.64502-1.797974 1.458984-1.797974.835999 0 1.27002.506958 1.27002 1.490967v3.237h.877991v-3.427002c0-1.269958-.708984-2.020996-1.903992-2.020996-.815003 0-1.481019.44403-1.734986 1.100036z"/><path d="m141.944717 28.807373h-.020996l-2.326965-6.367981h-1.407043v7.552979h.867004v-6.62201h.022034l2.453979 6.62201h.73999l2.454041-6.62201h.020996v6.62201h.877991v-7.552979h-1.354004z"/><path d="m162.560745 30.119385c1.184998 0 1.96698-.666016 2.136963-1.809021h-.835999c-.147949.709045-.58197 1.100037-1.300964 1.100037-1.046997 0-1.640015-.825012-1.640015-2.072998 0-1.248047.593018-2.084045 1.640015-2.084045.718994 0 1.153015.391052 1.300964 1.100037h.835999c-.169983-1.132019-.951965-1.809021-2.136963-1.809021-1.481018 0-2.507019 1.090027-2.507019 2.79303s1.026001 2.781981 2.507019 2.781981z"/><path d="m151.14772 27.601379c0 1.280029-.602966 1.830017-1.406982 1.830017-.835999 0-1.247986-.518005-1.247986-1.502014v-3.257996h-.889038v3.427002c0 1.291016.677002 2.020996 1.882996 2.020996.804016 0 1.439026-.422974 1.692017-1.090027v.963013h.856995v-5.320984h-.888v2.929993z"/><path d="m176.215714 28.426392c-.221985.645996-.654968.994995-1.375.994995-1.014954 0-1.659973-.677002-1.703003-1.903992h3.934998v-.348999c0-1.36499-.708984-2.624023-2.284973-2.624023-1.416992 0-2.507019 1.079041-2.507019 2.814026 0 1.713989 1.058044 2.760986 2.559998 2.760986 1.037048 0 1.957031-.560974 2.200012-1.692993zm-1.427979-3.173035c.952026 0 1.406982.709045 1.427979 1.629028h-3.045959c.148009-1.090027.782958-1.629028 1.61798-1.629028z"/><path d="m179.547745 27.062378c0-1.279968.645996-1.797974 1.460022-1.797974.835999 0 1.268982.506958 1.268982 1.490967v3.237h.877991v-3.427002c0-1.269958-.708008-2.020996-1.903992-2.020996-.814026 0-1.481018.444031-1.734009 1.100037v-.973022h-.846985v5.320984h.877991z"/><path d="m189.120743 10.633057h.877991v7.786011h-.877991z"/><path d="m177.209732 15.489075c0-1.279968.645996-1.797974 1.460022-1.797974.835999 0 1.268982.506958 1.268982 1.490967v3.237h.877991v-3.427002c0-1.269958-.708008-2.020996-1.903992-2.020996-.814026 0-1.449036.423035-1.703003 1.100037v-3.438049h-.877991v7.786011h.877991z"/><path d="m194.155716 18.546082c1.036011 0 1.955994-.560974 2.200012-1.692993h-.825012c-.222961.645996-.656006.994995-1.375.994995-1.015991 0-1.661011-.677002-1.703003-1.903992h3.934021v-.348999c0-1.36499-.708008-2.624023-2.283997-2.624023-1.41803 0-2.507019 1.079041-2.507019 2.814026 0 1.713988 1.057984 2.760986 2.559998 2.760986zm-.052979-4.865967c.951965 0 1.406006.708984 1.427979 1.628967h-3.046997c.14801-1.089966.78302-1.628967 1.619018-1.628967z"/><path d="m184.582718 18.546082c.804016 0 1.437988-.422974 1.692017-1.089966v.962952h.856995v-5.320984h-.888v2.929993c0 1.280029-.603027 1.830017-1.406982 1.830017-.835999 0-1.248047-.518005-1.248047-1.502014v-3.257996h-.888977v3.427002c-.000002 1.291015.677 2.020996 1.882994 2.020996z"/><path d="m159.418716 15.489075c0-1.279968.64502-1.797974 1.460022-1.797974.834961 0 1.268982.506958 1.268982 1.490967v3.237h.877991v-3.427002c0-1.269958-.708984-2.020996-1.903992-2.020996-.813965 0-1.448975.423035-1.703003 1.100037v-3.438049h-.877991v7.786011h.877991z"/><path d="m154.849747 18.546082c1.18396 0 1.96698-.666016 2.135986-1.809021h-.835022c-.14801.709045-.58197 1.100037-1.300964 1.100037-1.048035 0-1.640015-.825012-1.640015-2.072998s.59198-2.083984 1.640015-2.083984c.718994 0 1.152954.390991 1.300964 1.099976h.835022c-.169006-1.132019-.952026-1.809021-2.135986-1.809021-1.481018 0-2.507019 1.090027-2.507019 2.79303s1.026001 2.781981 2.507019 2.781981z"/><path d="m139.099747 14.960083h4.420959v3.458984h.910034v-7.552978h-.910034v3.33197h-4.420959v-3.33197h-.910034v7.552978h.910034z"/><path d="m172.640701 18.546082c1.185059 0 1.967041-.666016 2.137024-1.809021h-.835999c-.14801.709045-.58197 1.100037-1.301025 1.100037-1.046997 0-1.639954-.825012-1.639954-2.072998s.592957-2.083984 1.639954-2.083984c.719055 0 1.153015.390991 1.301025 1.099976h.835999c-.169983-1.132019-.951965-1.809021-2.137024-1.809021-1.480957 0-2.506958 1.090027-2.506958 2.79303s1.026001 2.781981 2.506958 2.781981z"/><path d="m148.597733 18.546082c1.471008 0 2.528015-1.067993 2.528015-2.781982s-1.057007-2.79303-2.528015-2.79303c-1.470032 0-2.528015 1.079041-2.528015 2.79303s1.057983 2.781982 2.528015 2.781982zm0-4.865967c1.036987 0 1.661011.803955 1.661011 2.083984 0 1.279968-.624023 2.072998-1.661011 2.072998-1.036011 0-1.660034-.79303-1.660034-2.072998-.000001-1.280029.624023-2.083984 1.660034-2.083984z"/><path d="m166.812698 17.880066c-.719971 0-1.396973-.307007-1.459961-1.036987h-.846008c.094971 1.142029 1.046997 1.703003 2.315979 1.703003 1.196045 0 2.072998-.687988 2.072998-1.619019 0-.855957-.506958-1.278992-1.375-1.448975l-1.057007-.200989c-.613953-.116028-.930969-.307007-.930969-.760986 0-.519043.455017-.868042 1.163025-.868042.72998 0 1.205994.317993 1.269958.856995h.814026c-.106018-1.005005-.856995-1.533997-2.083984-1.533997-1.174011 0-1.978027.697998-1.978027 1.598022 0 .929993.624023 1.278992 1.481018 1.437988l.941956.190979c.677002.127014.930054.380005.930054.772034-.000001.570985-.528016.909974-1.258058.909974z"/></g></svg>