<svg viewBox="0 0 212.6 44.39" xmlns="http://www.w3.org/2000/svg"><g fill="#fc5555"><path d="m97.9 2.23h16.81v16.81h-16.81z" transform="matrix(.94871061 -.31614582 .31614582 .94871061 2.09 34.16)"/><path d="m30.31 18.76h-25.19v-18.76h-5.12v42.52h5.12v-19.47h25.19v19.47h5.12v-42.52h-5.12z"/><path d="m63.99 35.85h-.12l-13.43-35.85h-7.92v42.52h4.88v-37.28h.12l14.15 37.28h4.16l14.15-37.28h.12v37.28h4.94v-42.52h-7.62z"/><path d="m148.36 34.72h.88v7.79h-.88z"/><path d="m151.22 37.19h.88v5.32h-.88z"/><path d="m151.16 35.01h.99v1.07h-.99z"/><path d="m144.39 37.06a2 2 0 0 0 -1.8 1.1v-1h-.85v7.2h.88v-2.78a2 2 0 0 0 1.77 1.06c1.35 0 2.37-1.1 2.37-2.79s-1.02-2.79-2.37-2.79zm-.18 4.94c-1 0-1.63-.83-1.63-2v-.15c0-1.21.59-2 1.63-2s1.66.86 1.66 2.1-.61 2.05-1.66 2.05z"/><path d="m129.81 35-3 7.55h.91l.83-2.11h3.62l.83 2.11h1l-3.16-7.55zm-1 4.69 1.5-3.78 1.49 3.78z"/><path d="m156.2 37.06a2.55 2.55 0 0 0 -2.5 2.82 2.5 2.5 0 0 0 2.56 2.76 2.13 2.13 0 0 0 2.2-1.7h-.83a1.32 1.32 0 0 1 -1.37 1c-1 0-1.66-.68-1.71-1.91h3.94v-.34c0-1.37-.71-2.63-2.29-2.63zm-1.61 2.34c.14-1.09.78-1.63 1.61-1.63s1.41.71 1.43 1.63z"/><path d="m137.78 37.06a2 2 0 0 0 -1.8 1.1v-1h-.85v7.2h.87v-2.78a2 2 0 0 0 1.77 1.06c1.35 0 2.37-1.1 2.37-2.79s-1.01-2.79-2.36-2.79zm-.18 4.94c-1 0-1.63-.83-1.63-2v-.15c0-1.21.59-2 1.63-2s1.66.86 1.66 2.1-.61 2.05-1.66 2.05z"/><path d="m198.92 37.77a1.23 1.23 0 0 1 1.3 1.1h.84a2 2 0 0 0 -2.14-1.81 2.51 2.51 0 0 0 -2.5 2.79 2.5 2.5 0 0 0 2.5 2.79 2 2 0 0 0 2.14-1.81h-.84a1.23 1.23 0 0 1 -1.3 1.1c-1 0-1.64-.83-1.64-2.08s.59-2.08 1.64-2.08z"/><path d="m163.84 38.13a1.89 1.89 0 0 0 -1.77-1.07c-1.35 0-2.37 1.1-2.37 2.79s1 2.79 2.37 2.79a2 2 0 0 0 1.8-1.06v.93h.85v-7.79h-.88zm0 1.79c0 1.2-.59 2-1.63 2s-1.66-.86-1.66-2.1.62-2.1 1.66-2.1 1.63.81 1.63 2z"/><path d="m186.5 37.06a2.55 2.55 0 0 0 -2.5 2.82 2.5 2.5 0 0 0 2.56 2.76 2.13 2.13 0 0 0 2.2-1.7h-.83a1.32 1.32 0 0 1 -1.37 1c-1 0-1.66-.68-1.71-1.91h3.94v-.34c0-1.37-.71-2.63-2.29-2.63zm-1.61 2.34c.14-1.09.78-1.63 1.61-1.63s1.41.71 1.43 1.63z"/><path d="m211.22 39.57-1.05-.2c-.62-.12-.93-.31-.93-.76s.45-.87 1.16-.87 1.2.32 1.27.86h.81c-.1-1-.85-1.54-2.08-1.54s-2 .7-2 1.6.62 1.28 1.48 1.44l.94.19c.68.13.93.38.93.77 0 .57-.53.91-1.26.91s-1.39-.31-1.45-1h-.85c.09 1.15 1 1.71 2.32 1.71s2.09-.68 2.09-1.68-.51-1.26-1.38-1.43z"/><path d="m204.73 37.06a2.55 2.55 0 0 0 -2.51 2.82 2.51 2.51 0 0 0 2.56 2.76 2.11 2.11 0 0 0 2.2-1.7h-.82a1.34 1.34 0 0 1 -1.38 1c-1 0-1.66-.68-1.7-1.91h3.92v-.34c0-1.37-.69-2.63-2.27-2.63zm-1.62 2.34c.15-1.09.78-1.63 1.62-1.63s1.41.71 1.43 1.63z"/><path d="m193 37.06a1.82 1.82 0 0 0 -1.74 1.1v-1h-.84v5.32h.87v-2.9c0-1.28.65-1.8 1.46-1.8s1.27.51 1.27 1.49v3.24h.88v-3.43a1.8 1.8 0 0 0 -1.9-2.02z"/><path d="m181.52 37.19h.88v5.32h-.88z"/><path d="m177.83 37.77a1.23 1.23 0 0 1 1.3 1.1h.87a2 2 0 0 0 -2.14-1.81 2.51 2.51 0 0 0 -2.51 2.79 2.51 2.51 0 0 0 2.51 2.79 2 2 0 0 0 2.14-1.81h-.84a1.23 1.23 0 0 1 -1.3 1.1c-1.05 0-1.64-.83-1.64-2.08s.56-2.08 1.61-2.08z"/><path d="m172.16 38.47-1.48-.31c-.92-.18-1.34-.44-1.34-1.19s.65-1.41 1.75-1.41 1.82.49 1.95 1.33h.88c-.15-1.36-1.22-2.06-2.84-2.06s-2.63.93-2.63 2.17.91 1.76 1.92 2l1.44.28c1 .19 1.38.6 1.38 1.24 0 .91-.8 1.43-1.88 1.43s-2.11-.42-2.23-1.63h-.88c.11 1.65 1.49 2.36 3.13 2.36s2.74-.91 2.74-2.2-.75-1.78-1.91-2.01z"/><path d="m181.46 35.01h.99v1.07h-.99z"/><path d="m141.84 23.44h.99v1.07h-.99z"/><path d="m130.5 31.06c1.95 0 3.06-1.14 3.06-3.2v-4.48h-.91v4.53c0 1.61-.82 2.38-2.15 2.38s-2.15-.77-2.15-2.38v-4.53h-.91v4.46c0 2.08 1.14 3.22 3.06 3.22z"/><path d="m162.36 26.16c.73 0 1.21.32 1.27.86h.81c-.1-1-.85-1.53-2.08-1.53a1.76 1.76 0 0 0 -2 1.6c0 .93.63 1.28 1.48 1.43l.94.19c.68.13.94.39.94.78 0 .57-.53.91-1.26.91s-1.4-.31-1.46-1h-.85c.1 1.14 1.05 1.7 2.32 1.7s2.07-.68 2.07-1.62-.51-1.28-1.37-1.44l-1.06-.21c-.62-.11-.93-.3-.93-.76s.47-.91 1.18-.91z"/><path d="m140 30.94v-3.43a1.91 1.91 0 0 0 -3.64-.92v-1h-.85v5.33h.88v-2.92c0-1.28.65-1.8 1.46-1.8s1.27.51 1.27 1.49v3.24z"/><path d="m141.9 25.61h.88v5.32h-.88z"/><path d="m166.19 25.61h.88v5.32h-.88z"/><path d="m166.13 23.44h.99v1.07h-.99z"/><path d="m157.29 26.87v-1.26h-.84v5.33h.88v-2.63c0-1.34.77-2 1.61-2a2.32 2.32 0 0 1 .46 0v-.8a1.9 1.9 0 0 0 -.41 0 1.74 1.74 0 0 0 -1.7 1.36z"/><path d="m177.56 25.61h-.91l-1.6 4.39-1.69-4.35h-.92l2.12 5.35c-.35.9-.6 1.19-1.13 1.19a1.64 1.64 0 0 1 -.42 0v.72a3.26 3.26 0 0 0 .52 0c1 0 1.4-.54 1.88-1.81z"/><path d="m170.6 31a3.14 3.14 0 0 0 .93-.15v-.72a2.35 2.35 0 0 1 -.77.13c-.49 0-.77-.19-.77-.75v-3.23h1.4v-.67h-1.39v-1.35h-.87v1.35h-.78v.67h.78v3.29a1.29 1.29 0 0 0 1.47 1.43z"/><path d="m187.24 24.62v1h-.77v.67h.77v4.66h.87v-4.67h1.14v-.67h-1.14v-1c0-.6.35-.79.73-.79a4.27 4.27 0 0 1 .54 0v-.7a3.61 3.61 0 0 0 -.59-.05 1.41 1.41 0 0 0 -1.55 1.55z"/><path d="m185.51 28.28a2.54 2.54 0 1 0 -5.06 0 2.54 2.54 0 1 0 5.06 0zm-2.51 2.07c-1 0-1.66-.79-1.66-2.07s.66-2.08 1.66-2.08 1.66.8 1.66 2.08-.66 2.07-1.66 2.07z"/><path d="m154.82 29.37h-.82a1.32 1.32 0 0 1 -1.37 1c-1 0-1.66-.67-1.7-1.9h3.93v-.35a2.33 2.33 0 0 0 -2.28-2.62 2.55 2.55 0 0 0 -2.51 2.81 2.5 2.5 0 0 0 2.56 2.76 2.12 2.12 0 0 0 2.19-1.7zm-2.25-3.17c1 0 1.4.71 1.42 1.63h-3a1.62 1.62 0 0 1 1.58-1.63z"/><path d="m146.76 30.07h-.02l-1.72-4.46h-.9l2.13 5.33h.98l2.05-5.33h-.88z"/><path d="m139.73 11.86h.9v1.07h-.9z"/><path d="m137.81 11.86h.89v1.07h-.89z"/><path d="m160.11 19.36v-3.42a1.81 1.81 0 0 0 -1.91-2 1.74 1.74 0 0 0 -1.7 1.1v-3.46h-.88v7.78h.88v-2.93c0-1.28.65-1.8 1.46-1.8s1.27.51 1.27 1.5v3.23z"/><path d="m144.24 15v-1h-.85v5.32h.88v-2.89c0-1.28.65-1.8 1.46-1.8s1.27.51 1.27 1.5v3.23h.88v-3.42a1.91 1.91 0 0 0 -3.64-.93z"/><path d="m131.31 18.18h-.02l-2.32-6.37h-1.41v7.55h.87v-6.62h.02l2.45 6.62h.74l2.46-6.62h.02v6.62h.88v-7.55h-1.36z"/><path d="m151.93 19.49a2 2 0 0 0 2.14-1.81h-.84a1.23 1.23 0 0 1 -1.3 1.1c-1.05 0-1.64-.82-1.64-2.07s.59-2.09 1.64-2.09a1.23 1.23 0 0 1 1.3 1.1h.84a2 2 0 0 0 -2.14-1.81 2.52 2.52 0 0 0 -2.51 2.8 2.51 2.51 0 0 0 2.51 2.78z"/><path d="m140.52 17c0 1.28-.61 1.83-1.41 1.83s-1.25-.52-1.25-1.5v-3.33h-.86v3.43a1.78 1.78 0 0 0 1.89 2 1.73 1.73 0 0 0 1.69-1.09v1h.86v-5.34h-.89z"/><path d="m165.59 17.8a1.34 1.34 0 0 1 -1.38 1c-1 0-1.66-.68-1.7-1.9h3.93v-.35c0-1.37-.71-2.63-2.28-2.63a2.55 2.55 0 0 0 -2.51 2.82 2.51 2.51 0 0 0 2.56 2.76 2.11 2.11 0 0 0 2.2-1.69zm-1.43-3.18c1 0 1.4.71 1.43 1.63h-3.05c.15-1.09.78-1.63 1.62-1.63z"/><path d="m168.92 16.43c0-1.28.64-1.8 1.46-1.8s1.27.51 1.27 1.5v3.23h.87v-3.42a1.91 1.91 0 0 0 -3.63-.93v-1.01h-.89v5.32h.88z"/><path d="m178.49 0h.88v7.79h-.88z"/><path d="m166.58 4.86c0-1.28.65-1.8 1.46-1.8s1.27.51 1.27 1.49v3.24h.88v-3.43a1.8 1.8 0 0 0 -1.91-2 1.72 1.72 0 0 0 -1.7 1.1v-3.46h-.88v7.79h.88z"/><path d="m183.53 7.92a2.13 2.13 0 0 0 2.2-1.7h-.83a1.33 1.33 0 0 1 -1.37 1c-1 0-1.67-.68-1.71-1.91h3.94v-.31c0-1.37-.71-2.63-2.29-2.63a2.54 2.54 0 0 0 -2.47 2.79 2.5 2.5 0 0 0 2.53 2.76zm-.06-4.87c.95 0 1.41.71 1.43 1.63h-3.05c.15-1.09.79-1.63 1.62-1.63z"/><path d="m174 7.92a1.73 1.73 0 0 0 1.69-1.09v1h.86v-5.36h-.89v2.93c0 1.28-.6 1.83-1.4 1.83s-1.26-.52-1.26-1.5v-3.26h-.89v3.43a1.77 1.77 0 0 0 1.89 2.02z"/><path d="m148.79 4.86c0-1.28.64-1.8 1.46-1.8s1.27.51 1.27 1.49v3.24h.88v-3.43a1.8 1.8 0 0 0 -1.91-2 1.72 1.72 0 0 0 -1.7 1.1v-3.46h-.88v7.79h.88z"/><path d="m144.22 7.92a2 2 0 0 0 2.14-1.81h-.84a1.23 1.23 0 0 1 -1.3 1.1c-1.05 0-1.64-.83-1.64-2.08s.59-2.08 1.64-2.08a1.23 1.23 0 0 1 1.3 1.1h.84a2 2 0 0 0 -2.14-1.81 2.51 2.51 0 0 0 -2.51 2.79 2.51 2.51 0 0 0 2.51 2.79z"/><path d="m128.47 4.33h4.42v3.46h.91v-7.55h-.91v3.33h-4.42v-3.33h-.91v7.55h.91z"/><path d="m162 7.92a2 2 0 0 0 2.14-1.81h-.84a1.23 1.23 0 0 1 -1.3 1.1c-1 0-1.64-.83-1.64-2.08s.64-2.08 1.64-2.08a1.23 1.23 0 0 1 1.3 1.1h.84a2 2 0 0 0 -2.14-1.81 2.51 2.51 0 0 0 -2.51 2.79 2.51 2.51 0 0 0 2.51 2.79z"/><path d="m138 7.92a2.52 2.52 0 0 0 2.53-2.79 2.54 2.54 0 1 0 -5.06 0 2.52 2.52 0 0 0 2.53 2.79zm0-4.87c1 0 1.66.8 1.66 2.08s-.66 2.08-1.66 2.08-1.66-.8-1.66-2.08.59-2.08 1.66-2.08z"/><path d="m156.18 7.25c-.72 0-1.39-.31-1.46-1h-.84c.09 1.15 1 1.71 2.31 1.71s2.08-.69 2.08-1.62-.51-1.28-1.38-1.45l-1.06-.2c-.61-.12-.93-.31-.93-.76s.46-.87 1.17-.87 1.2.32 1.27.86h.81c-.11-1-.86-1.54-2.08-1.54s-2 .7-2 1.6.62 1.28 1.48 1.44l.94.19c.68.13.93.38.93.77.02.53-.51.87-1.24.87z"/></g></svg>