<svg xmlns="http://www.w3.org/2000/svg" width="100%" height="100%" viewBox="0 0 573 166" fill-rule="evenodd" stroke-linejoin="round" stroke-miterlimit="1.41421"><clipPath id="A"><path d="M.092.001h572.2v165.37H.092z"/></clipPath><g clip-path="url(#A)" fill="#fff" fill-rule="nonzero"><path d="M310.66 48.65V1.008h-13.554l.1 18.965.182 9.344h-.1l-4.366-8.794L281.55 1.008h-18.83V48.65h13.464V26.662L276 20.156h.1c1.002 2.473 2.457 5.864 3.912 8.246L291.74 48.65h18.922zm-59.402 0V37.38h-16.74v-7.604h15.83v-10.72h-15.83v-6.962h16.74V1.008H220.5V48.65h30.748zM207.685 1.008h-14V48.65h14V1.008zM169.933 24.37c0 8.338-5.095 12.735-12.1 12.735-2 0-3.73-.184-4.548-.274V12.46c1.363-.092 3.183-.184 4.82-.184 7.824 0 11.826 4.215 11.826 12.094m14.92-.55C184.852 7.147 174.48.733 159.3.733l-20.014.275v47.55c4.73.276 10.37.458 17.284.458 15.83 0 28.292-7.512 28.292-25.195m-57.857 6.322V1.008H113.17v27.027c0 6.414-2.548 9.804-8.46 9.804-6.004 0-8.734-2.84-8.734-9.62V1.008h-14v30.6c0 10.72 6.823 17.956 21.924 17.956 16.1 0 23.105-8.6 23.105-19.422m-52.488-16.95V1.008H37.482v12.185h11.553V48.65h14V13.193h11.463zm-40.3 19.24c0-14.384-17.284-12.368-17.284-17.6 0-2.2 1.546-3.664 5.367-3.664 2.728 0 5.82.458 8.277 1.2L30.93.733C28.384.275 25.2.001 22.834.001 9.007.001 1.9 6.596 1.9 16.308c0 15.76 17.012 12.094 17.012 17.866 0 2.382-2.093 3.94-5.458 3.94-3.457 0-6.822-.55-9.37-1.558L3.64 48.742c2.638.55 5.822 1.008 8.642 1.008 14.282 0 21.924-7.147 21.924-17.317M572.292 90.04c0-14.384-17.285-12.368-17.285-17.592 0-2.2 1.547-3.665 5.368-3.665 2.728 0 5.822.46 8.278 1.193l.363-11.636a50.04 50.04 0 0 0-8.096-.734c-13.827 0-20.922 6.597-20.922 16.3 0 15.76 17 12.095 17 17.866 0 2.382-2.092 3.94-5.458 3.94-3.456 0-6.823-.552-9.37-1.56l-.454 12.187c2.638.548 5.82 1.006 8.642 1.006 14.282 0 21.924-7.146 21.924-17.316m-41.847 16.218V58.613H516.9l.1 18.967c0 3.572 0 6.78.182 9.346h-.1a98.59 98.59 0 0 0-4.366-8.797l-11.372-19.516h-18.83v47.645h13.463V84.27c0-2.84-.1-4.582-.18-6.505h.1c1 2.473 2.456 5.863 3.9 8.246l11.734 20.248h18.923zm-71.675-23.82c0 8.6-5.004 12.185-10.552 12.185-6.46 0-10.098-4.855-10.098-12.37 0-7.97 4.82-12.094 10.28-12.094 6.095 0 10.37 4.214 10.37 12.278m15-.733c0-16.767-11.2-24.005-24.47-24.005-13.737 0-26.2 9.896-26.2 25.287 0 14.752 8.824 24.2 24.38 24.2 13.92 0 26.3-9.805 26.3-25.47m-59.3-23.1h-14v47.643h14V58.613zM392.628 70.8V58.613h-37.025V70.8h11.553v35.458h14V70.8h11.463zm-56.676 18.14h-10.2l3.274-9.253c.638-1.923 1.275-4.123 1.73-6.137h.1c.547 2.106 1.365 4.58 2 6.504l3.094 8.886zm21.105 17.318l-17-47.645h-16.83l-17.013 47.645h14l2.456-7.24h16.465l2.458 7.24h15.464zm-55.3 0l-7.37-47.645h-17.83l-6.64 21.166c-.9 2.748-1.547 5.496-2.274 8.886h-.1c-.546-3.4-1.274-6.504-2-8.886l-6.368-21.166h-17.74l-7.458 47.645h14.008l2.457-19.7c.454-3.574.818-6.872 1.1-10.446h.1c.73 3.757 1.82 8.156 2.73 11.545l5.366 18.6h14.374L280.185 86c.9-3.116 1.73-6.7 2.458-10.08h.1c.274 2.84.728 6.414 1.182 9.713l2.913 20.614h14.918zm-90.243-32.252c0 3.4-2.456 5.68-6.095 5.68-1.1 0-2.274 0-3.274-.1V69.15c.9-.1 2-.1 2.82-.1 4.003 0 6.55 1.922 6.55 4.945m17.285 32.252l-8.825-14.66c-1.273-2.2-2.547-4.123-3.274-5.407 6.004-2.2 9.734-6.688 9.734-13.468 0-9.895-7.46-14.477-19.468-14.477-6.186 0-14.646.093-18.83.366v47.645h14V88.85h.454l9.37 17.408h16.83zm-64.4-23.81c0 8.6-5.003 12.185-10.552 12.185-6.46 0-10.098-4.855-10.098-12.37 0-7.97 4.822-12.094 10.28-12.094 6.095 0 10.37 4.214 10.37 12.278m15-.733c0-16.767-11.2-24.005-24.47-24.005-13.737 0-26.2 9.896-26.2 25.287 0 14.752 8.824 24.2 24.38 24.2 13.92 0 26.3-9.805 26.3-25.47M122.262 69.7V58.613h-30.02v47.645h14V88.482h15.282v-10.8h-15.282V69.7h16zm-42.937 36.558V58.613H65.77l.1 18.967c0 3.572 0 6.78.182 9.346h-.1c-1.365-3.115-2.82-6.05-4.367-8.797l-11.37-19.516h-18.83v47.645H44.85V84.27c0-2.84-.1-4.582-.182-6.505h.1c1 2.473 2.456 5.863 3.912 8.246l11.734 20.248h18.923zM18.558 58.613h-14v47.643h14V58.613zM134 160.93v-22.905h-14v13.65c-1.274.275-2.82.55-4.366.55-6.278 0-10.553-4.4-10.553-12.186 0-7.97 4.913-12.828 12.554-12.828 4.458 0 8.642.917 12.645 2.568l2.82-12.003c-5.367-1.65-10.826-2.474-16.102-2.474-17 0-26.927 11.45-26.927 25.744 0 15.943 10.734 23.822 24.744 23.822 6.822 0 13.2-1.465 19.195-3.94m-68.048-14.385H55.765l3.275-9.254c.636-1.924 1.273-4.124 1.728-6.138h.1c.547 2.107 1.365 4.582 2.002 6.505l3.093 8.887zm21.105 17.316l-17-47.642h-16.83L36.215 163.86h14l2.456-7.238h16.467l2.456 7.238h15.464zm-49.942-35.456V116.22H.092v12.186h11.553v35.456h14.008v-35.456h11.463zm149.428 36.257v-12.652c-4.123 0-6.966 0-12.936.355l-.07-.07 1.28-1.35c7.605-7.96 10.804-15.282 10.804-20.97 0-7.675-4.833-14.143-15.637-14.143-6.113 0-10.662 1.35-13.8 2.843l2 11.8c2.06-1.35 5.117-2.488 8.103-2.488 3.056 0 4.762 1.777 4.762 4.406 0 2.205-1.635 7.1-10.45 16.278l-4.7 4.905v11.088h30.635zm43.003-24.522c0-12.44-3.98-24.096-19.405-24.096-10.306 0-20.186 8.316-20.186 25.1 0 18.765 9.453 24.238 19.12 24.238 10.733 0 20.47-8.6 20.47-25.233m-13.86.142c0 10.52-3.056 14.074-6.112 14.074-4.336 0-5.758-4.265-5.758-13.932 0-10.093 2.488-13.576 6.397-13.576 3.84 0 5.473 3.696 5.473 13.434m48.2 24.38v-12.652c-4.123 0-6.966 0-12.937.355l-.07-.07 1.28-1.35c7.605-7.96 10.804-15.282 10.804-20.97 0-7.675-4.834-14.143-15.638-14.143-6.113 0-10.662 1.35-13.8 2.843l2 11.8c2.06-1.35 5.118-2.488 8.103-2.488 3.057 0 4.762 1.777 4.762 4.406 0 2.205-1.634 7.1-10.448 16.278l-4.7 4.905v11.088h30.635zm43.002-24.522c0-12.44-3.98-24.096-19.404-24.096-10.307 0-20.187 8.316-20.187 25.1 0 18.765 9.454 24.238 19.12 24.238 10.733 0 20.47-8.6 20.47-25.233m-13.86.142c0 10.52-3.056 14.074-6.113 14.074-4.336 0-5.757-4.265-5.757-13.932 0-10.093 2.488-13.576 6.397-13.576 3.838 0 5.473 3.696 5.473 13.434"/></g></svg>